P3
10 10 255
0 0 0
0 0 0
0 0 0
0 0 0
0 0 0
0 0 0
0 0 0
0 0 0
0 0 0
0 0 0
0 0 0
0 0 0
0 0 0
0 0 0
0 0 0
0 0 0
0 0 0
0 0 0
0 0 0
0 0 0
0 0 0
0 0 0
0 0 0
0 0 0
38 0 0
43 0 0
47 0 0
0 0 0
0 0 0
0 0 0
0 0 0
0 0 0
0 0 0
59 0 0
38 0 0
59 0 0
138 0 0
47 0 0
0 0 0
0 0 0
0 0 0
0 0 0
0 0 0
94 0 0
38 0 0
39 0 0
59 0 0
43 0 0
0 0 0
0 0 0
0 0 0
0 0 0
0 0 0
173 0 0
70 0 0
38 0 0
38 0 0
38 0 0
0 0 0
0 0 0
0 0 0
0 0 0
0 0 0
0 0 0
173 0 0
94 0 0
59 0 0
0 0 0
0 0 0
0 0 0
0 0 0
0 0 0
0 0 0
0 0 0
0 0 0
0 0 0
0 0 0
0 0 0
0 0 0
0 0 0
0 0 0
0 0 0
0 0 0
0 0 0
0 0 0
0 0 0
0 0 0
0 0 0
0 0 0
0 0 0
0 0 0
0 0 0
0 0 0
0 0 0
0 0 0
0 0 0
0 0 0
0 0 0
0 0 0
0 0 0
