P3
10 10 255
0 0 0
0 0 0
0 0 0
0 0 0
0 0 0
0 0 0
0 0 0
0 0 0
0 0 0
0 0 0
0 0 0
0 0 0
0 0 0
0 0 0
0 0 0
0 0 0
0 0 0
0 0 0
0 0 0
0 0 0
0 0 0
0 0 0
0 0 0
0 0 0
130 0 0
132 0 0
131 0 0
0 0 0
0 0 0
0 0 0
0 0 0
0 0 0
0 0 0
130 0 0
136 0 0
138 0 0
136 0 0
131 0 0
0 0 0
0 0 0
0 0 0
0 0 0
0 0 0
131 0 0
137 0 0
140 0 0
138 0 0
132 0 0
0 0 0
0 0 0
0 0 0
0 0 0
0 0 0
129 0 0
135 0 0
137 0 0
136 0 0
130 0 0
0 0 0
0 0 0
0 0 0
0 0 0
0 0 0
0 0 0
129 0 0
131 0 0
130 0 0
0 0 0
0 0 0
0 0 0
0 0 0
0 0 0
0 0 0
0 0 0
0 0 0
0 0 0
0 0 0
0 0 0
0 0 0
0 0 0
0 0 0
0 0 0
0 0 0
0 0 0
0 0 0
0 0 0
0 0 0
0 0 0
0 0 0
0 0 0
0 0 0
0 0 0
0 0 0
0 0 0
0 0 0
0 0 0
0 0 0
0 0 0
0 0 0
0 0 0
